<svg xmlns="http://www.w3.org/2000/svg" viewBox="0 0 1200 630" role="img" aria-labelledby="title desc">
  <title id="title">The Marley Group with C21-803 Realty</title>
  <desc id="desc">Black and gold real estate social share image with a house illustration.</desc>
  <defs>
    <linearGradient id="gold" x1="0%" y1="0%" x2="100%" y2="100%">
      <stop offset="0%" stop-color="#f8e5a5"/>
      <stop offset="48%" stop-color="#c9a24d"/>
      <stop offset="100%" stop-color="#8f7234"/>
    </linearGradient>
    <linearGradient id="sky" x1="0%" y1="0%" x2="100%" y2="100%">
      <stop offset="0%" stop-color="#17130c"/>
      <stop offset="56%" stop-color="#080706"/>
      <stop offset="100%" stop-color="#2a2112"/>
    </linearGradient>
    <filter id="glow" x="-20%" y="-20%" width="140%" height="140%">
      <feGaussianBlur stdDeviation="10" result="blur"/>
      <feColorMatrix in="blur" type="matrix" values="1 0 0 0 0.95 0 1 0 0 0.75 0 0 1 0 0.25 0 0 0 0.5 0"/>
      <feMerge>
        <feMergeNode/>
        <feMergeNode in="SourceGraphic"/>
      </feMerge>
    </filter>
  </defs>

  <rect width="1200" height="630" fill="url(#sky)"/>
  <path d="M0 0h1200v630H0z" fill="#080706" opacity="0.34"/>
  <circle cx="1020" cy="118" r="210" fill="#c9a24d" opacity="0.12"/>
  <path d="M-80 602C170 420 382 384 576 494c178 100 365 89 624-120v256H-80z" fill="#0f0d09"/>
  <path d="M-30 578C170 454 363 430 548 516c201 94 403 59 682-142" fill="none" stroke="#c9a24d" stroke-width="4" opacity="0.42"/>

  <g transform="translate(600 145)" filter="url(#glow)">
    <path d="M80 210h350v210H80z" fill="#16130f" stroke="#c9a24d" stroke-width="5"/>
    <path d="M44 214 255 48l211 166" fill="none" stroke="url(#gold)" stroke-width="18" stroke-linejoin="round"/>
    <path d="M126 205 255 105l129 100" fill="#211a10" stroke="#c9a24d" stroke-width="4"/>
    <rect x="218" y="275" width="75" height="145" rx="4" fill="#0b0a08" stroke="#c9a24d" stroke-width="4"/>
    <circle cx="276" cy="350" r="5" fill="#f2d487"/>
    <rect x="122" y="260" width="72" height="66" rx="4" fill="#0b0a08" stroke="#c9a24d" stroke-width="4"/>
    <rect x="317" y="260" width="72" height="66" rx="4" fill="#0b0a08" stroke="#c9a24d" stroke-width="4"/>
    <path d="M158 260v66M122 293h72M353 260v66M317 293h72" stroke="#f2d487" stroke-width="3" opacity="0.82"/>
    <rect x="102" y="420" width="308" height="24" rx="12" fill="url(#gold)"/>
  </g>

  <g transform="translate(78 130)">
    <rect x="0" y="0" width="88" height="88" rx="18" fill="none" stroke="#c9a24d" stroke-width="3"/>
    <text x="44" y="55" fill="#f2d487" font-family="Arial, Helvetica, sans-serif" font-size="30" font-weight="700" text-anchor="middle">MG</text>
    <text x="0" y="160" fill="#f8f2e7" font-family="Georgia, 'Times New Roman', serif" font-size="76" font-weight="600">
      <tspan x="0" dy="0">The Marley Group</tspan>
      <tspan x="0" dy="86">with C21-803 Realty</tspan>
    </text>
    <text x="0" y="364" fill="#c9a24d" font-family="Arial, Helvetica, sans-serif" font-size="28" font-weight="700" letter-spacing="4">ACTIVE LISTINGS</text>
  </g>

  <rect x="24" y="24" width="1152" height="582" rx="28" fill="none" stroke="#c9a24d" stroke-width="2" opacity="0.48"/>
</svg>
